<svg width="100%" height="100%" viewBox="0 0 150 150" fill="white">
    <g>
        <rect x="141.176" y="0" width="8.824" height="46.064"/>
        <rect x="88.235" y="7.236" width="8.824" height="38.828"/>
        <rect x="114.706" y="19.118" width="8.824" height="26.946"/>
        <rect x="61.765" y="26.65" width="8.824" height="19.414"/>
        <rect x="127.941" y="5.826" width="8.824" height="40.238"/>
        <rect x="75" y="14.921" width="8.824" height="31.143"/>
        <rect x="101.471" y="12.72" width="8.824" height="33.344"/>
        <rect x="48.529" y="36.357" width="8.824" height="9.707"/>
    </g>
    <path d="M0,98.609L26.471,98.609L26.471,75.08L8.824,75.08L8.824,51.551L0,51.551L0,98.609Z"/>
    <path d="M30.882,98.609L30.882,51.551L57.353,51.551L57.353,75.08L40.119,75.08L40.119,89.786L57.353,89.786L57.353,98.609L30.882,98.609Z"/>
    <path d="M88.235,51.551L88.235,98.609L61.765,98.609L61.765,75.08L79.412,75.08L79.412,60.374L61.765,60.374L61.765,51.551L88.235,51.551Z"/>
    <path d="M119.118,51.551L92.647,51.551L92.647,75L101.471,75L101.471,98.609L110.294,98.609L110.294,75L119.118,75L119.118,51.551Z"/>
    <path d="M150,98.609L150,70.668L132.353,70.668L132.353,65.441L150,65.441L150,51.391L123.529,51.391L123.529,79.492L141.176,79.492L141.176,84.639L123.529,84.639L123.529,98.609L150,98.609Z"/>
    <g>
        <rect x="0" y="103.936" width="8.824" height="46.064"/>
        <rect x="52.941" y="103.936" width="8.824" height="38.828"/>
        <rect x="26.471" y="103.936" width="8.824" height="26.946"/>
        <rect x="79.412" y="103.936" width="8.824" height="19.414" />
        <rect x="13.235" y="103.936" width="8.824" height="40.238"/>
        <rect x="66.176" y="103.936" width="8.824" height="31.143"/>
        <rect x="39.706" y="103.936" width="8.824" height="33.344"/>
        <rect x="92.647" y="103.936" width="8.824" height="9.707"/>
    </g>
</svg>