<svg width="100%" height="100%" viewBox="0 0 256 66" fill="white">
    <path
        d="M206.816,32.996c0,-6.694 5.999,-12.131 13.361,-12.131c7.363,0 13.37,5.446 13.37,12.131c0,6.684 -5.999,12.13 -13.37,12.13c-7.371,-0 -13.361,-5.446 -13.361,-12.13Zm13.361,29.59c-4.759,0 -9.287,-0.953 -13.361,-2.647l0,-17.54c3.066,3.734 7.924,6.15 13.361,6.15c9.261,-0 16.802,-6.979 16.802,-15.553c-0,-8.575 -7.532,-15.553 -16.802,-15.553c-5.446,-0 -10.295,2.415 -13.361,6.149l0,-2.442c0,-4.447 -2.139,-8.583 -5.785,-11.996c5.366,-3.61 11.989,-5.749 19.146,-5.749c17.863,-0 32.384,13.271 32.384,29.582c-0,16.31 -14.53,29.581 -32.384,29.581m-20.278,-2.397l-12.095,-0l-0,-13.111c2.719,5.294 6.908,9.813 12.095,13.111Zm-13.37,-38.432c-2.183,-3.976 -6.943,-6.739 -12.443,-6.739c-7.567,0 -13.717,5.223 -13.717,11.641l-0,33.539l-15.581,-0l0,-33.548c0,-6.418 -6.159,-11.641 -13.717,-11.641c-4.092,0 -7.773,1.534 -10.286,3.958l-0,-14.386c3.2,-0.73 6.667,-1.132 10.286,-1.132c7.754,0 15.081,1.845 20.625,5.188l0.882,0.535l0.892,-0.535c5.544,-3.343 12.871,-5.188 20.625,-5.188c8.468,0 16.098,2.184 21.455,5.669c0.24,-0.214 0.49,-0.41 0.739,-0.615c-4.322,3.592 -7.718,8.129 -9.751,13.262m16.847,-0.588l-0,37.114c-9.333,-5.197 -15.581,-14.573 -15.581,-25.269c-0,-8.618 4.056,-16.381 10.518,-21.792c3.191,2.844 5.071,6.266 5.071,9.947m-86.04,31.926l0,7.095l-8.86,-0c3.699,-1.916 6.738,-4.323 8.86,-7.095Zm0,-47.586l0,38.174c0,6.783 -6.32,12.674 -15.581,15.66l0,-38.174c0,-6.782 6.329,-12.674 15.581,-15.66Zm-6.703,-0.864c-4.296,2.335 -9.154,7.451 -8.887,7.112l0,-7.112l8.887,-0Zm-12.318,55.634c-3.2,0.731 -6.667,1.132 -10.286,1.132c-16.151,0 -29.298,-7.959 -29.298,-17.728l-0,-23.093l15.58,-0l0,17.621c0,6.417 6.151,11.64 13.718,11.64c4.091,-0 7.772,-1.533 10.286,-3.957l0,14.394l0,-0.009Zm-56.573,-43.121l0,43.032l-18.665,-0l0,-43.032l-19.662,0l-0,-12.513l51.884,-0l0,12.504l-13.566,0l0.009,0.009Zm32.569,0l-15.589,0l-0,-12.513l15.589,-0l0,12.513Zm132.426,46.454c4.136,1.533 8.708,2.398 13.432,2.398c19.752,0 35.814,-14.804 35.814,-32.996c-0,-18.191 -16.071,-33.004 -35.823,-33.004c-8.245,0 -15.848,2.585 -21.9,6.925c-5.99,-4.251 -14.618,-6.925 -24.199,-6.925c-7.969,0 -15.563,1.827 -21.508,5.161c-5.946,-3.334 -13.54,-5.161 -21.508,-5.161c-3.593,0 -7.051,0.383 -10.286,1.078c-0.196,0.036 -0.419,0.09 -0.606,0.134l-21.838,0l0,36.98c0,4.528 -4.617,8.208 -10.286,8.208c-5.669,0 -10.286,-3.68 -10.286,-8.208l-0,-36.98l-77.76,0l-0,19.368l19.663,-0l-0,43.031l25.519,0l-0,-43.04l10.134,-0l0,23.093c0,11.667 14.681,21.159 32.73,21.159c3.592,0 7.05,-0.383 10.286,-1.078c0.214,-0.044 0.437,-0.089 0.642,-0.143l21.802,0l-0,-36.97c-0,-4.528 4.617,-8.209 10.286,-8.209c5.669,-0 10.286,3.681 10.286,8.209l-0,36.97l22.443,0l0,-36.97c0,-4.528 4.618,-8.209 10.287,-8.209c5.668,-0 10.294,3.681 10.294,8.209l0,36.97l22.382,0Z" />
</svg>