<?xml version="1.0" encoding="UTF-8" standalone="no"?>
<!DOCTYPE svg PUBLIC "-//W3C//DTD SVG 1.1//EN" "http://www.w3.org/Graphics/SVG/1.1/DTD/svg11.dtd">
<svg width="100%" height="100%" viewBox="0 0 1024 1024" version="1.1" xmlns="http://www.w3.org/2000/svg" xmlns:xlink="http://www.w3.org/1999/xlink" xml:space="preserve" xmlns:serif="http://www.serif.com/" style="fill-rule:evenodd;clip-rule:evenodd;stroke-linejoin:round;stroke-miterlimit:2;">
    <g transform="matrix(1,0,0,1,-268.298,-849.303)">
        <g transform="matrix(2.65567,0,0,3.16147,0,0)">
            <g transform="matrix(0.697132,0,0,0.801127,-1053.3,-674.791)">
                <rect x="1655.83" y="1177.63" width="553.109" height="404.305" style="fill:rgb(180,1,11);"/>
            </g>
        </g>
        <g transform="matrix(2.65567,0,0,3.16147,0,0)">
            <g transform="matrix(1.18472,0,0,0.99518,130.772,303.908)">
                <path d="M85.025,13.498C85.025,10.76 87.491,8.536 90.518,8.536C93.545,8.536 96.014,10.764 96.014,13.498C96.014,16.233 93.548,18.461 90.518,18.461C87.487,18.461 85.025,16.233 85.025,13.498ZM90.518,25.604C88.561,25.604 86.7,25.213 85.025,24.521L85.025,17.345C86.285,18.873 88.283,19.861 90.518,19.861C94.325,19.861 97.425,17.006 97.425,13.498C97.425,9.991 94.329,7.136 90.518,7.136C88.279,7.136 86.285,8.124 85.025,9.651L85.025,8.652C85.025,6.833 84.145,5.141 82.647,3.745C84.853,2.268 87.575,1.393 90.518,1.393C97.861,1.393 103.831,6.822 103.831,13.495C103.831,20.167 97.858,25.596 90.518,25.596M82.181,24.615L77.209,24.615L77.209,19.252C78.326,21.418 80.049,23.266 82.181,24.615ZM76.685,8.893C75.787,7.267 73.83,6.137 71.569,6.137C68.458,6.137 65.93,8.273 65.93,10.898L65.93,24.619L59.524,24.619L59.524,10.895C59.524,8.27 56.992,6.133 53.885,6.133C52.203,6.133 50.69,6.76 49.656,7.752L49.656,1.867C50.972,1.568 52.397,1.404 53.885,1.404C57.073,1.404 60.085,2.159 62.364,3.526L62.727,3.745L63.094,3.526C65.373,2.159 68.385,1.404 71.573,1.404C75.054,1.404 78.191,2.297 80.393,3.723C80.492,3.635 80.595,3.555 80.697,3.471C78.92,4.941 77.524,6.796 76.688,8.897M83.614,8.656L83.614,23.839C79.777,21.713 77.209,17.877 77.209,13.502C77.209,9.976 78.876,6.8 81.533,4.587C82.845,5.75 83.618,7.15 83.618,8.656M48.245,21.717L48.245,24.619L44.603,24.619C46.124,23.835 47.373,22.851 48.245,21.717ZM48.245,2.25L48.245,17.866C48.245,20.641 45.647,23.051 41.84,24.273L41.84,8.656C41.84,5.881 44.442,3.471 48.245,2.25ZM45.49,1.896C43.724,2.851 41.726,4.944 41.836,4.806L41.836,1.896L45.49,1.896ZM40.426,24.656C39.11,24.955 37.685,25.119 36.197,25.119C29.557,25.119 24.152,21.863 24.152,17.866L24.152,8.419L30.557,8.419L30.557,15.628C30.557,18.253 33.086,20.39 36.197,20.39C37.879,20.39 39.392,19.762 40.426,18.771L40.426,24.659L40.426,24.656ZM17.168,7.015L17.168,24.619L9.494,24.619L9.494,7.015L1.411,7.015L1.411,1.896L22.741,1.896L22.741,7.012L17.164,7.012L17.168,7.015ZM30.557,7.015L24.148,7.015L24.148,1.896L30.557,1.896L30.557,7.015ZM84.999,26.019C86.7,26.646 88.579,27 90.521,27C98.642,27 105.245,20.944 105.245,13.502C105.245,6.06 98.638,0 90.518,0C87.128,0 84.003,1.057 81.514,2.833C79.052,1.094 75.505,0 71.566,0C68.29,0 65.168,0.747 62.723,2.111C60.279,0.747 57.157,0 53.881,0C52.404,0 50.983,0.157 49.653,0.441C49.572,0.456 49.48,0.478 49.403,0.496L40.426,0.496L40.426,15.624C40.426,17.476 38.527,18.982 36.197,18.982C33.866,18.982 31.968,17.476 31.968,15.624L31.968,0.496L0,0.496L0,8.419L8.084,8.419L8.084,26.023L18.575,26.023L18.575,8.415L22.741,8.415L22.741,17.863C22.741,22.636 28.776,26.519 36.197,26.519C37.674,26.519 39.095,26.362 40.426,26.078C40.514,26.059 40.605,26.041 40.689,26.019L49.653,26.019L49.653,10.895C49.653,9.043 51.551,7.537 53.881,7.537C56.212,7.537 58.11,9.043 58.11,10.895L58.11,26.019L67.337,26.019L67.337,10.895C67.337,9.043 69.235,7.537 71.566,7.537C73.896,7.537 75.798,9.043 75.798,10.895L75.798,26.019L84.999,26.019Z" style="fill:rgb(39,10,6);fill-rule:nonzero;"/>
            </g>
        </g>
        <g transform="matrix(2.65567,0,0,3.16147,0,0)">
            <g transform="matrix(0.84904,0,0,0.84904,52.4157,75.8208)">
                <g transform="matrix(0.376553,0,0,0.316308,71.3219,341.564)">
                    <path d="M865.68,120L685.68,120L685.68,279.456L745.68,279.456L745.68,440L805.68,440L805.68,279.456L865.68,279.456L865.68,120Z" style="fill:rgb(248,211,211);"/>
                </g>
                <g transform="matrix(0.376553,0,0,0.316308,61.3865,341.564)">
                    <path d="M1102.07,440L1102.07,250L982.065,250L982.065,214.456L1102.07,214.456L1102.07,118.911L922.065,118.911L922.065,310L1042.07,310L1042.07,345L922.065,345L922.065,440L1102.07,440Z" style="fill:rgb(248,211,211);"/>
                </g>
                <g transform="matrix(0.376553,0,0,0.316308,72.3311,341.564)">
                    <path d="M53,440L233,440L233,280L113,280L113,120L53,120L53,440Z" style="fill:rgb(248,211,211);"/>
                </g>
                <g transform="matrix(0.376553,0,0,0.316308,72.3311,341.564)">
                    <path d="M263,440L263,120L443,120L443,280L325.813,280L325.813,380L443,380L443,440L263,440Z" style="fill:rgb(248,211,211);"/>
                </g>
                <g transform="matrix(0.376553,0,0,0.316308,71.578,341.564)">
                    <path d="M655,120L655,440L475,440L475,280L595,280L595,180L475,180L475,120L655,120Z" style="fill:rgb(248,211,211);"/>
                </g>
                <g transform="matrix(-0.271788,0,0,0.256192,1165.99,-114.541)">
                    <rect x="2537.32" y="1495.68" width="83.128" height="386.737" style="fill:rgb(248,211,211);"/>
                </g>
                <g transform="matrix(-0.271788,0,0,0.215948,1030.43,-38.7841)">
                    <rect x="2537.32" y="1495.68" width="83.128" height="386.737" style="fill:rgb(248,211,211);"/>
                </g>
                <g transform="matrix(-0.271788,0,0,0.149865,1098.21,85.6119)">
                    <rect x="2537.32" y="1495.68" width="83.128" height="386.737" style="fill:rgb(248,211,211);"/>
                </g>
                <g transform="matrix(-0.271788,0,0,0.107974,962.647,164.468)">
                    <rect x="2537.32" y="1495.68" width="83.128" height="386.737" style="fill:rgb(248,211,211);"/>
                </g>
                <g transform="matrix(-0.271788,0,0,0.22379,1132.1,-53.5456)">
                    <rect x="2537.32" y="1495.68" width="83.128" height="386.737" style="fill:rgb(248,211,211);"/>
                </g>
                <g transform="matrix(-0.271788,0,0,0.173209,996.537,41.6686)">
                    <rect x="2537.32" y="1495.68" width="83.128" height="386.737" style="fill:rgb(248,211,211);"/>
                </g>
                <g transform="matrix(-0.271788,0,0,0.185447,1064.32,18.6315)">
                    <rect x="2537.32" y="1495.68" width="83.128" height="386.737" style="fill:rgb(248,211,211);"/>
                </g>
                <g transform="matrix(-0.271788,0,0,0.053987,928.758,266.094)">
                    <rect x="2537.32" y="1495.68" width="83.128" height="386.737" style="fill:rgb(248,211,211);"/>
                </g>
                <g transform="matrix(0.271788,-2.73682e-17,-3.81567e-17,-0.256192,-597.325,974.458)">
                    <rect x="2537.32" y="1495.68" width="83.128" height="386.737" style="fill:rgb(248,211,211);"/>
                </g>
                <g transform="matrix(0.271788,-2.73682e-17,-3.21628e-17,-0.215948,-461.766,898.701)">
                    <rect x="2537.32" y="1495.68" width="83.128" height="386.737" style="fill:rgb(248,211,211);"/>
                </g>
                <g transform="matrix(0.271788,-2.73682e-17,-2.23205e-17,-0.149865,-529.546,774.305)">
                    <rect x="2537.32" y="1495.68" width="83.128" height="386.737" style="fill:rgb(248,211,211);"/>
                </g>
                <g transform="matrix(0.271788,-2.73682e-17,-1.60814e-17,-0.107974,-393.987,695.449)">
                    <rect x="2537.32" y="1495.68" width="83.128" height="386.737" style="fill:rgb(248,211,211);"/>
                </g>
                <g transform="matrix(0.271788,-2.73682e-17,-3.33307e-17,-0.22379,-563.436,913.463)">
                    <rect x="2537.32" y="1495.68" width="83.128" height="386.737" style="fill:rgb(248,211,211);"/>
                </g>
                <g transform="matrix(0.271788,-2.73682e-17,-2.57974e-17,-0.173209,-427.877,818.248)">
                    <rect x="2537.32" y="1495.68" width="83.128" height="386.737" style="fill:rgb(248,211,211);"/>
                </g>
                <g transform="matrix(0.271788,-2.73682e-17,-2.76201e-17,-0.185447,-495.656,841.286)">
                    <rect x="2537.32" y="1495.68" width="83.128" height="386.737" style="fill:rgb(248,211,211);"/>
                </g>
                <g transform="matrix(0.271788,-2.73682e-17,-8.0407e-18,-0.053987,-360.097,593.823)">
                    <rect x="2537.32" y="1495.68" width="83.128" height="386.737" style="fill:rgb(248,211,211);"/>
                </g>
            </g>
        </g>
    </g>
</svg>
