<?xml version="1.0" encoding="UTF-8" standalone="no"?>
<svg
   width="100%"
   height="100%"
   viewBox="0 0 150 150"
   version="1.1"
   xml:space="preserve"
   style="fill-rule:evenodd;clip-rule:evenodd;stroke-linejoin:round;stroke-miterlimit:2;fill:#B4010B"
   id="svg20"
   xmlns="http://www.w3.org/2000/svg"
   xmlns:svg="http://www.w3.org/2000/svg"><defs
   id="defs20" /><path
   d="M119.118,51.551L92.647,51.551L92.647,75L101.471,75L101.471,98.609L110.294,98.609L110.294,75L119.118,75L119.118,51.551Z"
   id="path1" /><path
   d="M150,98.609L150,70.668L132.353,70.668L132.353,65.441L150,65.441L150,51.391L123.529,51.391L123.529,79.492L141.176,79.492L141.176,84.639L123.529,84.639L123.529,98.609L150,98.609Z"
   id="path2" /><path
   d="M0,98.609L26.471,98.609L26.471,75.08L8.824,75.08L8.824,51.551L0,51.551L0,98.609Z"
   id="path3" /><path
   d="M30.882,98.609L30.882,51.551L57.353,51.551L57.353,75.08L40.119,75.08L40.119,89.786L57.353,89.786L57.353,98.609L30.882,98.609Z"
   id="path4" /><path
   d="M88.235,51.551L88.235,98.609L61.765,98.609L61.765,75.08L79.412,75.08L79.412,60.374L61.765,60.374L61.765,51.551L88.235,51.551Z"
   id="path5" /><g
   id="g20"><rect
     x="141.176"
     y="0"
     width="8.824"
     height="46.064"
     id="rect5" /><rect
     x="88.235"
     y="7.236"
     width="8.824"
     height="38.828"
     id="rect6" /><rect
     x="114.706"
     y="19.118"
     width="8.824"
     height="26.946"
     id="rect7" /><rect
     x="61.765"
     y="26.65"
     width="8.824"
     height="19.414"
     id="rect8" /><rect
     x="127.941"
     y="5.826"
     width="8.824"
     height="40.238"
     id="rect9" /><rect
     x="75"
     y="14.921"
     width="8.824"
     height="31.143"
     id="rect10" /><rect
     x="101.471"
     y="12.72"
     width="8.824"
     height="33.344"
     id="rect11" /><rect
     x="48.529"
     y="36.357"
     width="8.824"
     height="9.707"
     id="rect12" /></g><g
   id="g21"><rect
     x="0"
     y="103.936"
     width="8.824"
     height="46.064"
     id="rect13" /><rect
     x="52.941"
     y="103.936"
     width="8.824"
     height="38.828"
     id="rect14" /><rect
     x="26.471"
     y="103.936"
     width="8.824"
     height="26.946"
     id="rect15" /><rect
     x="79.412"
     y="103.936"
     width="8.824"
     height="19.414"
     id="rect16" /><rect
     x="13.235"
     y="103.936"
     width="8.824"
     height="40.238"
     id="rect17" /><rect
     x="66.176"
     y="103.936"
     width="8.824"
     height="31.143"
     id="rect18" /><rect
     x="39.706"
     y="103.936"
     width="8.824"
     height="33.344"
     id="rect19" /><rect
     x="92.647"
     y="103.936"
     width="8.824"
     height="9.707"
     id="rect20" /></g></svg>
